<svg width="241" height="206" viewBox="0 0 241 206" fill="none" xmlns="http://www.w3.org/2000/svg">
<g clip-path="url(#clip0_399_835)">
<path d="M134.605 33.249V89.013H74.891C66.319 88.296 59.59 80.713 59.59 71.469C59.59 70.597 59.644 69.744 59.772 68.899C59.772 68.863 59.781 68.827 59.781 68.781C60.934 60.809 67.145 54.597 74.836 53.916H99.553V30.243C100.934 21.244 109.07 15.96 117.197 15.851C123.072 15.905 128.257 18.693 131.417 22.933C133.424 25.63 134.596 28.936 134.596 32.486C134.596 32.65 134.596 32.822 134.596 32.986C134.605 33.067 134.614 33.158 134.623 33.24L134.605 33.249Z" fill="url(#paint0_linear_399_835)"/>
<path d="M198.982 77.081C198.792 77.771 185.743 121.422 137.034 129.921C137.034 129.921 82.424 141.753 52.422 90.902C52.422 90.902 24.008 43.882 58.079 0.640991C57.516 1.58499 29.992 47.76 59.114 85.935C59.114 85.935 81.134 119.596 129.933 113.458C129.933 113.458 150.537 111.823 157.702 103.106C152.535 104.868 148.267 105.903 145.525 106.493C134.392 108.899 116.721 112.722 103.073 104.014C101.366 102.924 100.113 101.889 99.477 101.335C99.495 101.281 107.123 78.843 147.695 88.187C147.695 88.187 149.23 88.632 151.809 89.122C161.334 90.956 185.18 93.526 198.982 77.081Z" fill="url(#paint1_linear_399_835)"/>
<path d="M155.871 54.207L145.328 54.062H118.286C110.459 55.542 99.481 62.198 99.481 87.914V101.335C99.499 101.281 107.126 78.843 147.698 88.186C147.698 88.186 149.233 88.631 151.812 89.131H151.885C151.966 89.131 152.057 89.122 152.139 89.113C152.302 89.113 152.475 89.122 152.638 89.122C156.189 89.176 159.503 88.041 162.236 86.071C166.513 82.974 169.374 77.825 169.51 71.95C169.519 63.968 164.534 55.932 155.862 54.207H155.871Z" fill="url(#paint2_linear_399_835)"/>
<path d="M0.152008 199.71L3.79401 191.629C7.70701 194.48 13.537 196.469 19.104 196.469C25.46 196.469 28.048 194.353 28.048 191.501C28.048 182.82 1.07901 188.786 1.07901 171.561C1.07901 163.679 7.43501 157.113 20.629 157.113C26.459 157.113 32.425 158.503 36.729 161.218L33.414 169.363C29.11 166.911 24.67 165.722 20.556 165.722C14.2 165.722 11.748 168.11 11.748 171.025C11.748 179.57 38.718 173.676 38.718 190.702C38.718 198.457 32.288 205.077 19.04 205.077C11.685 205.077 4.26601 202.889 0.152008 199.71Z" fill="black"/>
<path d="M76.885 183.937V204.277H67.214V199.837C65.289 203.088 61.584 204.804 56.345 204.804C48 204.804 43.023 200.164 43.023 194.007C43.023 187.851 47.464 183.338 58.333 183.338H66.551C66.551 178.897 63.9 176.318 58.333 176.318C54.556 176.318 50.651 177.58 48.063 179.633L44.349 172.414C48.263 169.626 54.02 168.109 59.723 168.109C70.592 168.109 76.885 173.14 76.885 183.946V183.937ZM66.551 193.017V189.376H59.459C54.619 189.376 53.103 191.165 53.103 193.553C53.103 196.141 55.291 197.857 58.933 197.857C62.374 197.857 65.362 196.268 66.551 193.017Z" fill="black"/>
<path d="M86.227 155.115H96.56V204.278H86.227V155.115Z" fill="black"/>
<path d="M142.082 168.627V204.277H132.275V200.037C129.56 203.151 125.583 204.804 121.206 204.804C112.262 204.804 105.969 199.764 105.969 188.768V168.627H116.302V187.242C116.302 193.208 118.954 195.86 123.522 195.86C128.089 195.86 131.739 192.809 131.739 186.252V168.627H142.073H142.082Z" fill="black"/>
<path d="M174.691 202.552C172.575 204.078 169.461 204.804 166.273 204.804C157.856 204.804 152.952 200.5 152.952 192.019V177.372H147.449V169.417H152.952V160.736H163.286V169.417H172.167V177.372H163.286V191.883C163.286 194.934 164.938 196.587 167.726 196.587C169.252 196.587 170.777 196.123 171.903 195.261L174.682 202.552H174.691Z" fill="black"/>
<path d="M202.652 168.101V177.644C201.789 177.581 201.126 177.508 200.336 177.508C194.642 177.508 190.865 180.623 190.865 187.451V204.278H180.531V168.627H190.402V173.331C192.917 169.889 197.158 168.101 202.661 168.101H202.652Z" fill="black"/>
<path d="M240.155 183.937V204.277H230.484V199.837C228.559 203.088 224.854 204.804 219.614 204.804C211.269 204.804 206.293 200.164 206.293 194.007C206.293 187.851 210.733 183.338 221.603 183.338H229.821C229.821 178.897 227.169 176.318 221.603 176.318C217.825 176.318 213.921 177.58 211.333 179.633L207.619 172.414C211.532 169.626 217.29 168.109 222.992 168.109C233.862 168.109 240.155 173.14 240.155 183.946V183.937ZM229.821 193.017V189.376H222.729C217.889 189.376 216.372 191.165 216.372 193.553C216.372 196.141 218.561 197.857 222.202 197.857C225.644 197.857 228.631 196.268 229.821 193.017Z" fill="black"/>
</g>
<defs>
<linearGradient id="paint0_linear_399_835" x1="59.59" y1="17.9052" x2="132.835" y2="88.8055" gradientUnits="userSpaceOnUse">
<stop stop-color="#3073B9"/>
<stop offset="1" stop-color="#2D368E"/>
</linearGradient>
<linearGradient id="paint1_linear_399_835" x1="189.505" y1="131.114" x2="79.3681" y2="-20.1626" gradientUnits="userSpaceOnUse">
<stop stop-color="#3073B9"/>
<stop offset="1" stop-color="#2D368E"/>
</linearGradient>
<linearGradient id="paint2_linear_399_835" x1="169.51" y1="58.1573" x2="122.351" y2="115.913" gradientUnits="userSpaceOnUse">
<stop stop-color="#2E5CA9"/>
<stop offset="1" stop-color="#F1F1F1"/>
</linearGradient>
<clipPath id="clip0_399_835">
<rect width="241" height="206" fill="white"/>
</clipPath>
</defs>
</svg>
