<svg width="141" height="34" viewBox="0 0 141 34" fill="none" xmlns="http://www.w3.org/2000/svg">
<g clip-path="url(#clip0_399_808)">
<path d="M23.8453 9.36463V23.0416H9.19856C7.0987 22.8638 5.44531 21.0046 5.44531 18.7373C5.44531 18.5245 5.45927 18.3117 5.48717 18.1059C5.48717 18.0989 5.48717 18.0885 5.48717 18.078C5.76971 16.1212 7.29403 14.5968 9.17763 14.4329H15.24V8.62863C15.5784 6.42064 17.5736 5.12654 19.5688 5.09863C21.0094 5.11259 22.2826 5.79626 23.0569 6.83573C23.5488 7.49847 23.8383 8.30772 23.8383 9.17976C23.8383 9.22162 23.8383 9.25999 23.8383 9.30185C23.8383 9.32278 23.8418 9.3437 23.8453 9.36463Z" fill="url(#paint0_linear_399_808)"/>
<path d="M39.6339 20.1154C39.5851 20.2828 36.3864 30.9914 24.4396 33.0773C24.4396 33.0773 11.0451 35.9795 3.68859 23.5094C3.68859 23.5094 -3.28072 11.9776 5.07688 1.37012C4.93735 1.60033 -1.81221 12.9263 5.33151 22.2885C5.33151 22.2885 10.7312 30.545 22.7025 29.0381C22.7025 29.0381 27.7568 28.6369 29.5113 26.4987C28.2451 26.9312 27.1952 27.1824 26.5255 27.3289C23.7943 27.9184 19.4585 28.8567 16.1134 26.7185C15.6948 26.4499 15.3878 26.1987 15.2309 26.0627C15.2309 26.0627 17.1075 20.5444 27.0557 22.8362C27.0557 22.8362 27.4324 22.9443 28.0637 23.0664C30.4008 23.5163 36.2504 24.1442 39.6339 20.1119V20.1154Z" fill="url(#paint1_linear_399_808)"/>
<path d="M29.061 14.5027L26.4762 14.4678H19.8418C17.9233 14.8305 15.2305 16.463 15.2305 22.7696V26.0624C15.2305 26.0624 17.1071 20.5476 27.0588 22.8358C27.0588 22.8358 27.4355 22.944 28.0668 23.0661H28.0843C28.1052 23.0661 28.1261 23.066 28.1471 23.0591C28.1889 23.0591 28.2273 23.0591 28.2691 23.0591C29.1412 23.073 29.9539 22.794 30.6236 22.3126C31.6736 21.5522 32.3747 20.2895 32.4061 18.8489C32.4061 16.892 31.1852 14.9212 29.061 14.4957V14.5027Z" fill="url(#paint2_linear_399_808)"/>
<path d="M48.0039 24.9049L49.4027 21.8004C50.906 22.8957 53.1454 23.6596 55.2837 23.6596C57.7254 23.6596 58.7195 22.8469 58.7195 21.7516C58.7195 18.4169 48.3597 20.7086 48.3597 14.0916C48.3597 11.0639 50.8014 8.54199 55.8697 8.54199C58.1091 8.54199 60.4008 9.07568 62.0542 10.1186L60.781 13.2475C59.1276 12.3057 57.4219 11.8488 55.8418 11.8488C53.4001 11.8488 52.4583 12.7661 52.4583 13.8858C52.4583 17.1682 62.8181 14.9044 62.8181 21.4446C62.8181 24.4235 60.3484 26.9664 55.2592 26.9664C52.4338 26.9664 49.584 26.1257 48.0039 24.9049Z" fill="black"/>
<path d="M77.4799 18.8455V26.6589H73.7651V24.9532C73.0256 26.202 71.6024 26.8612 69.5898 26.8612C66.3842 26.8612 64.4727 25.0788 64.4727 22.7138C64.4727 20.3488 66.1784 18.6152 70.3537 18.6152H73.5104C73.5104 16.9095 72.4919 15.9189 70.3537 15.9189C68.9026 15.9189 67.4027 16.4038 66.4086 17.1921L64.9819 14.419C66.4853 13.3481 68.6968 12.7656 70.8874 12.7656C75.0627 12.7656 77.4799 14.6981 77.4799 18.8489V18.8455ZM73.5104 22.3336V20.9349H70.7862C68.927 20.9349 68.3445 21.622 68.3445 22.5394C68.3445 23.5335 69.1851 24.1928 70.5839 24.1928C71.9059 24.1928 73.0535 23.5824 73.5104 22.3336Z" fill="black"/>
<path d="M81.0664 7.77441H85.0359V26.6592H81.0664V7.77441Z" fill="black"/>
<path d="M102.529 12.9678V26.6622H98.7614V25.0333C97.7184 26.2297 96.1906 26.8645 94.5094 26.8645C91.0735 26.8645 88.6562 24.9286 88.6562 20.7045V12.9678H92.6257V20.1185C92.6257 22.4102 93.6443 23.4287 95.3988 23.4287C97.1534 23.4287 98.5556 22.2567 98.5556 19.7383V12.9678H102.525H102.529Z" fill="black"/>
<path d="M115.05 26.0004C114.238 26.5864 113.041 26.8655 111.817 26.8655C108.583 26.8655 106.7 25.2121 106.7 21.9542V16.3278H104.586V13.2722H106.7V9.9375H110.669V13.2722H114.081V16.3278H110.669V21.9018C110.669 23.0739 111.304 23.7087 112.375 23.7087C112.961 23.7087 113.547 23.5308 113.98 23.1994L115.047 26.0004H115.05Z" fill="black"/>
<path d="M125.79 12.7627V16.4287C125.459 16.4043 125.204 16.3764 124.901 16.3764C122.714 16.3764 121.262 17.5728 121.262 20.1959V26.6595H117.293V12.965H121.085V14.7719C122.051 13.4499 123.68 12.7627 125.794 12.7627H125.79Z" fill="black"/>
<path d="M140.199 18.8455V26.6589H136.484V24.9532C135.744 26.202 134.321 26.8612 132.309 26.8612C129.103 26.8612 127.191 25.0788 127.191 22.7138C127.191 20.3488 128.897 18.6152 133.072 18.6152H136.229C136.229 16.9095 135.211 15.9189 133.072 15.9189C131.621 15.9189 130.121 16.4038 129.127 17.1921L127.701 14.419C129.204 13.3481 131.416 12.7656 133.606 12.7656C137.781 12.7656 140.199 14.6981 140.199 18.8489V18.8455ZM136.226 22.3336V20.9349H133.501C131.642 20.9349 131.06 21.622 131.06 22.5394C131.06 23.5335 131.9 24.1928 133.299 24.1928C134.621 24.1928 135.769 23.5824 136.226 22.3336Z" fill="black"/>
</g>
<defs>
<linearGradient id="paint0_linear_399_808" x1="-13.3244" y1="-12.3072" x2="53.9514" y2="51.1666" gradientUnits="userSpaceOnUse">
<stop offset="0.28" stop-color="#3073B9"/>
<stop offset="0.33" stop-color="#2F6DB4"/>
<stop offset="0.38" stop-color="#2E5CA9"/>
<stop offset="0.44" stop-color="#2D4296"/>
<stop offset="0.46" stop-color="#2D368E"/>
</linearGradient>
<linearGradient id="paint1_linear_399_808" x1="24.6593" y1="25.522" x2="-1.45642" y2="-4.13418" gradientUnits="userSpaceOnUse">
<stop stop-color="#3073B9"/>
<stop offset="0.02" stop-color="#2F6DB5"/>
<stop offset="0.14" stop-color="#2E55A4"/>
<stop offset="0.27" stop-color="#2D4397"/>
<stop offset="0.4" stop-color="#2D3990"/>
<stop offset="0.56" stop-color="#2D368E"/>
</linearGradient>
<linearGradient id="paint2_linear_399_808" x1="49.5817" y1="-1.82535" x2="12.2934" y2="28.5634" gradientUnits="userSpaceOnUse">
<stop offset="0.41" stop-color="#2E5CA9"/>
<stop offset="0.53" stop-color="#305EAA"/>
<stop offset="0.61" stop-color="#3964AD"/>
<stop offset="0.68" stop-color="#4870B2"/>
<stop offset="0.74" stop-color="#5E80BA"/>
<stop offset="0.8" stop-color="#7996C5"/>
<stop offset="0.85" stop-color="#9BB0D1"/>
<stop offset="0.9" stop-color="#C3CEE0"/>
<stop offset="0.95" stop-color="#F1F1F1"/>
</linearGradient>
<clipPath id="clip0_399_808">
<rect width="141" height="33" fill="white" transform="translate(0 0.5)"/>
</clipPath>
</defs>
</svg>
